# Blender v2.80 (sub 75) OBJ File: 'asteroid.blend'
# www.blender.org
mtllib asteroid.mtl
o Icosphere
v 0.157373 1.689506 0.577279
v 0.330263 -1.367358 0.876639
v 0.772102 1.328525 -0.547111
v 1.026550 0.262588 0.319807
v -0.565123 -1.139597 -0.504496
v -0.843808 -0.821054 -0.072494
v -0.125680 -0.158814 -1.031955
v 0.391474 1.138279 0.948021
v 0.103489 1.688223 -0.505318
v -0.229971 1.599902 0.191401
v -0.795033 0.628103 -0.917485
v -0.871915 0.689776 0.437134
v -0.378600 0.200088 1.199151
v -1.001212 -0.357396 0.619840
v 0.720305 -0.212637 0.977599
v -0.129974 -0.605978 0.743889
v 0.533404 0.502730 -0.906604
v 1.122348 -1.068871 0.010735
v 0.055783 -1.434038 -0.600857
v -0.367567 -2.055767 0.082341
v 0.196442 -1.814478 0.245967
vt 0.749443 0.120831
vt 0.703136 0.253211
vt 0.780728 0.216967
vt 0.592664 0.390611
vt 0.543460 0.331716
vt 0.527835 0.415102
vt 0.397007 0.221725
vt 0.379193 0.406858
vt 0.340909 0.433017
vt 0.363636 0.472382
vt 0.299579 0.281263
vt 0.236571 0.369913
vt 0.118655 0.286474
vt 0.160504 0.363883
vt 0.981412 0.302090
vt 0.882363 0.391859
vt 0.952084 0.397914
vt 0.909746 0.255428
vt 0.798542 0.325956
vt 0.748172 0.378477
vt 0.494675 0.262231
vt 0.289027 0.143361
vt 0.197928 0.170818
vt 0.882058 0.184281
vt 0.644686 0.166635
vt 0.445693 0.102238
vt 0.098707 0.196826
vt 0.022197 0.195907
vt 0.055411 0.069236
vt 0.805990 0.136346
vt 0.309305 0.063356
vt 0.248917 0.045814
vt 0.293154 0.134624
vt 0.117360 0.045814
vt 0.137264 0.139850
vt 0.662336 0.085372
vt 0.601224 0.090247
vt 0.636363 0.000000
vt 0.802475 0.067239
vn 0.9139 -0.0283 0.4050
vn 0.4724 0.8810 -0.0246
vn 0.0819 0.2639 -0.9611
vn -0.2353 0.9719 0.0106
vn 0.1371 0.2558 -0.9569
vn -0.8116 0.4841 -0.3271
vn -0.6364 0.5847 0.5031
vn -0.5604 0.4827 0.6730
vn -0.2756 0.4531 0.8478
vn 0.8538 0.4868 0.1846
vn 0.8355 0.4527 0.3114
vn -0.2930 0.4516 -0.8428
vn -0.4498 -0.2583 -0.8550
vn -0.7468 0.6611 -0.0725
vn -0.9984 0.0005 -0.0567
vn -0.8596 -0.4252 0.2833
vn 0.5253 -0.2105 0.8245
vn 0.4673 -0.3085 -0.8285
vn -0.3010 -0.3436 -0.8896
vn -0.8850 -0.2120 -0.4146
vn -0.9611 0.0721 -0.2668
vn -0.0876 0.1817 0.9794
vn -0.7067 -0.6516 0.2757
vn -0.2454 -0.4252 0.8712
vn 0.3783 0.6577 0.6513
vn -0.0103 -0.4942 0.8693
vn -0.2677 0.0062 0.9635
vn 0.7527 -0.3052 0.5833
vn 0.9168 -0.0963 -0.3875
vn 0.9274 0.1466 -0.3442
vn 0.5381 -0.2002 -0.8188
vn -0.3784 -0.5557 -0.7402
vn -0.8800 -0.3758 -0.2905
vn -0.2830 0.0111 0.9591
vn 0.5009 -0.7553 -0.4225
vn 0.4575 -0.7802 -0.4265
vn -0.7955 -0.4018 0.4536
vn 0.6399 -0.6844 0.3494
usemtl None
s off
f 18/1/1 4/2/1 15/3/1
f 1/4/2 3/5/2 9/6/2
f 3/5/3 7/7/3 9/6/3
f 9/8/4 10/9/4 1/10/4
f 7/7/5 11/11/5 9/8/5
f 9/12/6 12/13/6 10/14/6
f 12/15/7 1/16/7 10/17/7
f 12/15/8 13/18/8 1/16/8
f 13/18/9 8/19/9 1/16/9
f 8/19/10 4/2/10 1/20/10
f 4/2/11 3/5/11 1/20/11
f 17/21/12 7/7/12 3/5/12
f 7/7/13 5/22/13 11/11/13
f 11/11/14 12/13/14 9/8/14
f 6/23/15 12/13/15 11/11/15
f 16/24/16 13/18/16 12/15/16
f 13/18/17 4/2/17 8/19/17
f 18/25/18 7/7/18 17/21/18
f 19/26/19 5/22/19 7/7/19
f 5/22/20 6/23/20 11/11/20
f 6/23/21 14/27/21 12/13/21
f 12/13/22 14/27/22 16/28/22
f 6/23/23 21/29/23 14/27/23
f 14/27/24 21/29/24 16/28/24
f 13/18/25 15/3/25 4/2/25
f 13/18/26 16/24/26 15/3/26
f 16/24/27 2/30/27 15/3/27
f 2/30/28 18/1/28 15/3/28
f 4/2/29 17/21/29 3/5/29
f 4/2/30 18/25/30 17/21/30
f 19/26/31 7/7/31 18/25/31
f 19/31/32 20/32/32 5/33/32
f 20/32/33 6/23/33 5/33/33
f 20/34/34 21/29/34 6/35/34
f 18/25/35 21/36/35 19/37/35
f 21/36/36 20/38/36 19/37/36
f 21/39/37 2/30/37 16/24/37
f 21/39/38 18/1/38 2/30/38
