# Blender v2.80 (sub 75) OBJ File: 'enemyshiphighpolyflipped.blend'
# www.blender.org
mtllib cone.mtl
o cone_Cube.004
v -0.986843 1.580772 -2.932821
v 1.013157 1.580772 -2.932821
v -0.986843 -0.419228 -2.932821
v 1.013157 -0.419228 -2.932821
v -0.286986 0.880915 -4.919284
v 0.313300 0.880915 -4.919284
v -0.286986 0.280629 -4.919284
v 0.313300 0.280629 -4.919284
v 0.013157 1.580772 -2.932821
v -0.986843 0.580772 -2.932821
v 1.013157 0.580772 -2.932821
v 0.013157 -0.419228 -2.932821
v 0.013157 0.880915 -4.919284
v -0.286986 0.580772 -4.919284
v 0.313300 0.580772 -4.919284
v 0.013157 0.280629 -4.919284
v 0.663229 -0.069299 -3.926053
v 0.663229 1.230844 -3.926053
v -0.636914 1.230844 -3.926053
v -0.636914 -0.069299 -3.926053
v -0.636914 0.580772 -3.926053
v 0.013157 -0.069299 -3.926053
v 0.013157 1.230844 -3.926053
v 0.013157 0.580772 -4.919284
v 0.663229 0.580772 -3.926053
vt 0.500000 0.750000
vt 0.625000 0.750000
vt 0.625000 0.750000
vt 0.500000 0.750000
vt 0.750000 0.625000
vt 0.875000 0.625000
vt 0.875000 0.750000
vt 0.750000 0.750000
vt 0.500000 0.750000
vt 0.375000 0.750000
vt 0.375000 0.750000
vt 0.500000 0.750000
vt 0.500000 0.000000
vt 0.375000 0.000000
vt 0.375000 0.000000
vt 0.500000 0.000000
vt 0.250000 0.500000
vt 0.125000 0.500000
vt 0.125000 0.500000
vt 0.250000 0.500000
vt 0.375000 0.500000
vt 0.375000 0.500000
vt 0.375000 0.500000
vt 0.250000 0.500000
vt 0.125000 0.500000
vt 0.625000 0.000000
vt 0.625000 0.000000
vt 0.625000 0.000000
vt 0.500000 0.000000
vt 0.375000 0.000000
vt 0.625000 0.750000
vt 0.625000 0.750000
vt 0.625000 0.750000
vt 0.500000 0.750000
vt 0.375000 0.750000
vt 0.625000 0.625000
vt 0.625000 0.500000
vt 0.750000 0.500000
vt 0.875000 0.500000
vt 0.500000 0.750000
vt 0.625000 0.750000
vn 0.9432 -0.0000 -0.3323
vn -0.0000 0.0000 -1.0000
vn 0.0000 0.9432 -0.3323
vn -0.0000 -0.9432 -0.3323
vn -0.9432 0.0000 -0.3323
usemtl Material
s off
f 25/1/1 17/2/1 8/3/1 15/4/1
f 24/5/2 16/6/2 7/7/2 14/8/2
f 23/9/3 18/10/3 6/11/3 13/12/3
f 22/13/4 20/14/4 7/15/4 16/16/4
f 21/17/5 19/18/5 5/19/5 14/20/5
f 20/21/5 21/17/5 14/20/5 7/22/5
f 3/23/5 10/24/5 21/17/5 20/21/5
f 10/24/5 1/25/5 19/18/5 21/17/5
f 17/26/4 22/13/4 16/16/4 8/27/4
f 4/28/4 12/29/4 22/13/4 17/26/4
f 12/29/4 3/30/4 20/14/4 22/13/4
f 19/31/3 23/9/3 13/12/3 5/32/3
f 1/33/3 9/34/3 23/9/3 19/31/3
f 9/34/3 2/35/3 18/10/3 23/9/3
f 13/36/2 24/5/2 14/8/2 5/32/2
f 6/37/2 15/38/2 24/5/2 13/36/2
f 15/38/2 8/39/2 16/6/2 24/5/2
f 18/10/1 25/1/1 15/4/1 6/11/1
f 2/35/1 11/40/1 25/1/1 18/10/1
f 11/40/1 4/41/1 17/2/1 25/1/1
