# Blender v2.80 (sub 75) OBJ File: 'enemyshiphighpolyflipped.blend'
# www.blender.org
mtllib engines.mtl
o engines_Cube.005
v -0.986843 -0.419228 3.187815
v -0.986843 1.580772 3.187815
v 1.013157 -0.419228 3.187815
v 1.013157 1.580772 3.187815
v 1.835683 1.249807 2.856850
v 1.835683 -0.088263 2.856850
v -1.809369 -0.088263 2.856850
v -1.809369 1.249807 2.856850
v 3.126248 1.249807 2.285272
v 3.126248 -0.088263 2.285272
v -3.165257 -0.088262 2.285272
v -3.165257 1.249807 2.285272
v 0.692669 1.250992 4.157422
v 0.692669 -0.089447 4.157422
v -0.647770 -0.089447 4.157422
v -0.647770 1.250992 4.157422
v 2.062304 1.024479 3.730204
v 2.062304 0.137065 3.730204
v -2.010751 0.119644 3.737646
v -2.010751 1.041901 3.737646
v 2.918212 1.024479 3.351131
v 2.918212 0.137065 3.351131
v -2.945290 0.119644 3.343689
v -2.945290 1.041901 3.343689
v 1.013157 0.580772 3.187815
v -0.986843 0.580772 3.187815
v 0.013157 -0.419228 3.187815
v 0.013157 1.580772 3.187815
v 1.835683 0.580772 2.856850
v -1.809369 0.580772 2.856850
v 3.126248 0.580772 2.285272
v -3.165257 0.580772 2.285272
v -2.487313 -0.088262 2.571061
v -2.487313 1.249807 2.571061
v 2.480966 -0.088263 2.571061
v 2.480966 1.249807 2.571061
v 0.692669 0.580772 4.157422
v -0.647770 0.580772 4.157422
v 0.022449 -0.089447 4.157422
v 0.022449 1.250992 4.157422
v 2.062304 0.580772 3.730204
v -2.010751 0.580772 3.737646
v 2.918212 0.580772 3.351131
v -2.945290 0.580772 3.343689
v -2.478021 0.119644 3.540668
v -2.478021 1.041901 3.540668
v 2.490258 0.137065 3.540668
v 2.490258 1.024479 3.540668
v 3.022230 1.137143 2.818202
v 3.022230 0.024401 2.818202
v 1.948993 0.024401 3.293527
v 0.852913 -0.254338 3.672618
v -0.817307 -0.254338 3.672618
v 1.948994 1.137143 3.293527
v -3.055273 0.015691 2.814481
v -3.055273 1.145854 2.814481
v -1.910060 1.145854 3.297248
v 0.852913 1.415882 3.672618
v -1.910060 0.015691 3.297248
v -0.817306 1.415882 3.672618
v 0.017803 1.415882 3.672618
v 2.485612 1.137143 3.055864
v -2.482667 0.015691 3.055864
v -0.817307 0.580772 3.672618
v -1.910060 0.580772 3.297248
v 0.852913 0.580772 3.672618
v -2.482667 1.145854 3.055864
v -3.055273 0.580772 2.814481
v 1.948993 0.580772 3.293527
v 3.022230 0.580772 2.818202
v 2.485612 0.024401 3.055864
v 0.017803 -0.254338 3.672618
vt 0.625000 0.375000
vt 0.625000 0.500000
vt 0.625000 0.500000
vt 0.625000 0.375000
vt 0.625000 0.250000
vt 0.625000 0.250000
vt 0.625000 0.250000
vt 0.625000 0.250000
vt 0.500000 0.500000
vt 0.375000 0.500000
vt 0.375000 0.500000
vt 0.500000 0.500000
vt 0.500000 0.500000
vt 0.625000 0.500000
vt 0.625000 0.500000
vt 0.500000 0.500000
vt 0.500000 0.250000
vt 0.625000 0.250000
vt 0.625000 0.250000
vt 0.500000 0.250000
vt 0.625000 1.000000
vt 0.625000 1.000000
vt 0.625000 1.000000
vt 0.625000 1.000000
vt 0.500000 0.500000
vt 0.375000 0.500000
vt 0.375000 0.500000
vt 0.500000 0.500000
vt 0.500000 0.250000
vt 0.375000 0.250000
vt 0.375000 0.250000
vt 0.500000 0.250000
vt 0.500000 0.250000
vt 0.625000 0.250000
vt 0.625000 0.250000
vt 0.500000 0.250000
vt 0.375000 0.250000
vt 0.375000 0.250000
vt 0.375000 0.250000
vt 0.375000 0.250000
vt 0.375000 1.000000
vt 0.375000 1.000000
vt 0.375000 1.000000
vt 0.375000 1.000000
vt 0.500000 1.000000
vt 0.625000 1.000000
vt 0.625000 1.000000
vt 0.500000 1.000000
vt 0.375000 1.000000
vt 0.375000 1.000000
vt 0.375000 1.000000
vt 0.500000 1.000000
vt 0.625000 1.000000
vt 0.375000 1.000000
vt 0.375000 1.000000
vt 0.375000 1.000000
vt 0.375000 1.000000
vt 0.375000 1.000000
vt 0.375000 0.250000
vt 0.375000 0.250000
vt 0.375000 0.250000
vt 0.375000 0.250000
vt 0.375000 0.250000
vt 0.375000 0.250000
vt 0.375000 0.250000
vt 0.375000 0.250000
vt 0.500000 0.250000
vt 0.625000 0.250000
vt 0.625000 0.250000
vt 0.625000 0.250000
vt 0.625000 0.250000
vt 0.500000 0.250000
vt 0.375000 0.250000
vt 0.625000 0.500000
vt 0.500000 0.500000
vt 0.375000 0.500000
vt 0.625000 1.000000
vt 0.625000 1.000000
vt 0.625000 1.000000
vt 0.625000 1.000000
vt 0.625000 1.000000
vt 0.375000 0.250000
vt 0.375000 0.250000
vt 0.375000 0.250000
vt 0.500000 0.250000
vt 0.625000 0.250000
vt 0.375000 0.500000
vt 0.375000 0.500000
vt 0.375000 0.500000
vt 0.500000 0.500000
vt 0.625000 0.500000
vt 0.625000 0.500000
vt 0.625000 0.500000
vt 0.625000 0.500000
vt 0.500000 0.500000
vt 0.375000 0.500000
vt 0.625000 0.250000
vt 0.625000 0.250000
vt 0.625000 0.250000
vt 0.625000 0.250000
vt 0.625000 0.250000
vt 0.625000 0.375000
vn -0.0000 -0.9467 0.3220
vn 0.0994 -0.9694 0.2243
vn 0.9815 0.0000 0.1916
vn -0.9679 0.0000 0.2512
vn -0.9791 0.0000 0.2035
vn -0.0884 0.9738 0.2096
vn 0.9495 -0.0000 0.3138
vn 0.9748 0.0000 0.2229
vn -0.9439 0.0000 0.3301
vn -0.0884 -0.9738 0.2096
vn 0.0994 0.9694 0.2243
vn 0.0000 0.9467 0.3220
usemtl Material
s off
f 72/1/1 52/2/1 14/3/1 39/4/1
f 71/5/2 50/6/2 22/7/2 47/8/2
f 70/9/3 49/10/3 21/11/3 43/12/3
f 69/13/4 51/14/4 18/15/4 41/16/4
f 68/17/5 55/18/5 23/19/5 44/20/5
f 67/21/6 56/22/6 24/23/6 46/24/6
f 66/25/7 58/26/7 13/27/7 37/28/7
f 65/29/8 57/30/8 20/31/8 42/32/8
f 64/33/9 53/34/9 15/35/9 38/36/9
f 63/37/10 59/38/10 19/39/10 45/40/10
f 62/41/11 54/42/11 17/43/11 48/44/11
f 61/45/12 60/46/12 16/47/12 40/48/12
f 58/49/12 61/45/12 40/48/12 13/50/12
f 4/51/12 28/52/12 61/45/12 58/49/12
f 28/52/12 2/53/12 60/46/12 61/45/12
f 49/54/11 62/41/11 48/44/11 21/55/11
f 9/56/11 36/57/11 62/41/11 49/54/11
f 36/57/11 5/58/11 54/42/11 62/41/11
f 55/59/10 63/37/10 45/40/10 23/60/10
f 11/61/10 33/62/10 63/37/10 55/59/10
f 33/62/10 7/63/10 59/38/10 63/37/10
f 60/64/9 64/33/9 38/36/9 16/65/9
f 2/66/9 26/67/9 64/33/9 60/64/9
f 26/67/9 1/68/9 53/34/9 64/33/9
f 59/69/8 65/29/8 42/32/8 19/70/8
f 7/71/8 30/72/8 65/29/8 59/69/8
f 30/72/8 8/73/8 57/30/8 65/29/8
f 52/2/7 66/25/7 37/28/7 14/3/7
f 3/74/7 25/75/7 66/25/7 52/2/7
f 25/75/7 4/76/7 58/26/7 66/25/7
f 57/77/6 67/21/6 46/24/6 20/78/6
f 8/79/6 34/80/6 67/21/6 57/77/6
f 34/80/6 12/81/6 56/22/6 67/21/6
f 56/82/5 68/17/5 44/20/5 24/83/5
f 12/84/5 32/85/5 68/17/5 56/82/5
f 32/85/5 11/86/5 55/18/5 68/17/5
f 54/87/4 69/13/4 41/16/4 17/88/4
f 5/89/4 29/90/4 69/13/4 54/87/4
f 29/90/4 6/91/4 51/14/4 69/13/4
f 50/92/3 70/9/3 43/12/3 22/93/3
f 10/94/3 31/95/3 70/9/3 50/92/3
f 31/95/3 9/96/3 49/10/3 70/9/3
f 51/97/2 71/5/2 47/8/2 18/98/2
f 6/99/2 35/100/2 71/5/2 51/97/2
f 35/100/2 10/101/2 50/6/2 71/5/2
f 53/34/1 72/1/1 39/4/1 15/35/1
f 1/68/1 27/102/1 72/1/1 53/34/1
f 27/102/1 3/74/1 52/2/1 72/1/1
