# Blender v2.80 (sub 75) OBJ File: 'enemyshiphighpolyflipped.blend'
# www.blender.org
mtllib fire.mtl
o fire_Cube.001
v 0.692669 1.250992 4.157422
v 0.692669 -0.089447 4.157422
v -0.647770 -0.089447 4.157422
v -0.647770 1.250992 4.157422
v 2.062304 1.024479 3.730204
v 2.062304 0.137065 3.730204
v -2.010751 0.119644 3.737646
v -2.010751 1.041901 3.737646
v 2.918212 1.024479 3.351131
v 2.918212 0.137065 3.351131
v -2.945290 0.119644 3.343689
v -2.945290 1.041901 3.343689
v 0.692669 0.580772 4.157422
v -0.647770 0.580772 4.157422
v 0.022449 -0.089447 4.157422
v 0.022449 1.250992 4.157422
v 2.062304 0.580772 3.730204
v -2.010751 0.580772 3.737646
v 2.918212 0.580772 3.351131
v -2.945290 0.580772 3.343689
v -2.478021 0.119644 3.540668
v -2.478021 1.041901 3.540668
v 2.490258 0.137065 3.540668
v 2.490258 1.024479 3.540668
v 2.490258 0.580772 3.540668
v -2.478021 0.580772 3.540668
v 0.022449 0.580772 4.157422
vt 0.500000 0.375000
vt 0.625000 0.375000
vt 0.625000 0.500000
vt 0.500000 0.500000
vt 0.500000 0.250000
vt 0.375000 0.250000
vt 0.375000 0.250000
vt 0.500000 0.250000
vt 0.500000 0.500000
vt 0.625000 0.500000
vt 0.625000 0.500000
vt 0.500000 0.500000
vt 0.375000 0.500000
vt 0.375000 0.500000
vt 0.375000 0.500000
vt 0.500000 0.500000
vt 0.625000 0.500000
vt 0.625000 0.250000
vt 0.625000 0.250000
vt 0.625000 0.250000
vt 0.500000 0.250000
vt 0.375000 0.250000
vt 0.375000 0.375000
vt 0.375000 0.500000
vt 0.375000 0.250000
vt 0.500000 0.250000
vt 0.625000 0.250000
vn 0.0000 0.0000 1.0000
vn -0.3884 0.0000 0.9215
vn 0.4050 0.0000 0.9143
usemtl Material
s off
f 27/1/1 15/2/1 2/3/1 13/4/1
f 26/5/2 22/6/2 12/7/2 20/8/2
f 25/9/3 23/10/3 10/11/3 19/12/3
f 24/13/3 25/9/3 19/12/3 9/14/3
f 5/15/3 17/16/3 25/9/3 24/13/3
f 17/16/3 6/17/3 23/10/3 25/9/3
f 21/18/2 26/5/2 20/8/2 11/19/2
f 7/20/2 18/21/2 26/5/2 21/18/2
f 18/21/2 8/22/2 22/6/2 26/5/2
f 16/23/1 27/1/1 13/4/1 1/24/1
f 4/25/1 14/26/1 27/1/1 16/23/1
f 14/26/1 3/27/1 15/2/1 27/1/1
