# Blender v2.80 (sub 75) OBJ File: 'enemyshiphighpolyflipped.blend'
# www.blender.org
mtllib hull.mtl
o hull_Cube
v -0.986843 -0.419228 0.658698
v -0.986843 1.580772 0.658698
v -0.986843 -0.419228 3.187815
v 1.013157 -0.419228 0.658698
v 1.013157 1.580772 0.658698
v 1.013157 -0.419228 3.187815
v -0.986843 1.580772 -1.170385
v 1.013157 1.580772 -1.170385
v -0.986843 -0.419228 -1.170385
v 1.013157 -0.419228 -1.170385
v -0.986843 1.580772 -2.932821
v 1.013157 1.580772 -2.932821
v -0.986843 -0.419228 -2.932821
v 1.013157 -0.419228 -2.932821
v 1.835683 1.249807 0.989663
v 1.835683 1.249807 2.856850
v -1.809369 -0.088263 0.989663
v -1.809369 1.249807 0.989663
v 1.835683 -0.088263 2.856850
v -1.809369 -0.088263 2.856850
v -1.809369 1.249807 2.856850
v 1.835683 -0.088263 0.989663
v 3.126248 1.249807 0.418085
v 3.126248 1.249807 2.285272
v -3.165257 -0.088262 0.418085
v -3.165257 1.249807 0.418085
v 3.126248 -0.088263 2.285272
v -3.165257 -0.088262 2.285272
v -3.165257 1.249807 2.285272
v 3.126248 -0.088263 0.418085
v -0.986843 -0.419228 3.187815
v 1.013157 -0.419228 3.187815
v -0.501887 -1.222149 0.658698
v 0.528201 -1.222149 0.658698
v 0.528201 -1.222149 -1.170385
v -0.501887 -1.222149 -1.170385
v 1.013157 -0.419228 -2.932821
v -0.986843 -0.419228 -2.932821
v 0.013157 1.580772 0.658698
v -0.986843 0.580772 0.658698
v 1.013157 0.580772 0.658698
v 0.013157 -0.419228 3.187815
v 0.770679 -0.820689 0.658698
v 0.013157 1.580772 -1.170385
v -0.986843 0.580772 -1.170385
v 1.013157 0.580772 -1.170385
v 1.013157 -0.419228 3.187815
v 1.013157 -0.419228 -0.255844
v 1.013157 1.580772 -0.255844
v -0.986843 1.580772 -0.255844
v -0.986843 -0.419228 -0.255844
v 0.013157 1.580772 -2.932821
v -0.986843 0.580772 -2.932821
v 1.013157 0.580772 -2.932821
v 0.013157 -0.419228 -2.932821
v 1.013157 -0.419228 -2.051603
v 1.013157 1.580772 -2.051603
v -0.986843 1.580772 -2.051603
v -0.986843 -0.419228 -2.051603
v 1.835683 1.249807 1.923257
v -1.809369 0.580772 0.989663
v 1.835683 0.580772 0.989663
v -1.809369 -0.088263 1.923257
v 1.835683 -0.088263 1.923257
v -1.809369 1.249807 1.923257
v 3.126248 1.249807 1.351678
v -3.165257 0.580772 0.418085
v 3.126248 0.580772 0.418085
v -3.165257 -0.088262 1.351678
v 3.126248 -0.088263 1.351678
v -3.165257 1.249807 1.351678
v -2.487313 -0.088262 2.571061
v -2.487313 -0.088262 0.703874
v -2.487313 1.249807 2.571061
v -2.487313 1.249807 0.703874
v 2.480966 -0.088263 0.703874
v 2.480966 -0.088263 2.571061
v 2.480966 1.249807 0.703874
v 2.480966 1.249807 2.571061
v 0.013157 -0.419228 3.187815
v 0.013157 -1.222149 0.658698
v 0.013157 -1.222149 -1.170385
v 0.528201 -1.222149 -0.255844
v -0.501887 -1.222149 -0.255844
v 0.013157 -0.419228 -2.932821
v 0.770679 -0.820689 -2.051603
v -0.744365 -0.820689 -2.051603
v -0.744365 -0.820689 0.658698
v -0.986843 -0.419228 3.187815
v -0.986843 -0.419228 -2.932821
v -0.744365 -0.820689 -1.170385
v 0.770679 -0.820689 -1.170385
v 1.013157 -0.419228 -2.932821
v 0.891918 -0.619958 -2.051603
v 0.013157 -0.419228 3.187815
v -0.744365 -0.820689 -0.255844
v 0.013157 -0.419228 -2.932821
v 0.770679 -0.820689 -0.255844
v 0.013157 -0.820689 -2.051603
v 0.013157 -1.222149 -0.255844
v -2.487313 1.249807 1.637468
v 2.480966 1.249807 1.637468
v 2.480966 0.580772 0.703874
v 2.480966 -0.088263 1.637468
v -2.487313 0.580772 0.703874
v -2.487313 -0.088262 1.637468
v -0.986843 0.580772 -2.051603
v 0.013157 1.580772 -2.051603
v -0.986843 0.580772 -0.255844
v 0.013157 1.580772 -0.255844
v 1.013157 0.580772 -2.051603
v 1.013157 0.580772 -0.255844
v -0.865604 -0.619958 -2.051603
vt 0.375000 0.500000
vt 0.375000 0.500000
vt 0.375000 0.500000
vt 0.375000 0.500000
vt 0.500000 0.750000
vt 0.625000 0.750000
vt 0.625000 0.750000
vt 0.500000 0.750000
vt 0.500000 0.750000
vt 0.625000 0.750000
vt 0.625000 0.750000
vt 0.500000 0.750000
vt 0.500000 0.750000
vt 0.375000 0.750000
vt 0.375000 0.750000
vt 0.500000 0.750000
vt 0.250000 0.500000
vt 0.125000 0.500000
vt 0.125000 0.500000
vt 0.250000 0.500000
vt 0.500000 0.750000
vt 0.375000 0.750000
vt 0.375000 0.750000
vt 0.500000 0.750000
vt 0.250000 0.500000
vt 0.125000 0.500000
vt 0.125000 0.500000
vt 0.250000 0.500000
vt 0.375000 0.125000
vt 0.375000 0.250000
vt 0.375000 0.250000
vt 0.375000 0.125000
vt 0.250000 0.500000
vt 0.375000 0.500000
vt 0.375000 0.500000
vt 0.250000 0.500000
vt 0.625000 0.125000
vt 0.625000 0.000000
vt 0.625000 0.000000
vt 0.625000 0.125000
vt 0.500000 0.750000
vt 0.375000 0.750000
vt 0.375000 0.750000
vt 0.500000 0.750000
vt 0.375000 0.875000
vt 0.375000 1.000000
vt 0.375000 1.000000
vt 0.375000 0.875000
vt 0.625000 0.875000
vt 0.625000 0.750000
vt 0.625000 0.750000
vt 0.625000 0.875000
vt 0.500000 0.000000
vt 0.375000 0.000000
vt 0.375000 0.000000
vt 0.500000 0.000000
vt 0.500000 0.000000
vt 0.375000 0.000000
vt 0.375000 0.000000
vt 0.500000 0.000000
vt 0.625000 0.750000
vt 0.625000 0.750000
vt 0.625000 0.750000
vt 0.625000 0.750000
vt 0.500000 0.000000
vt 0.625000 0.000000
vt 0.625000 0.000000
vt 0.375000 0.500000
vt 0.375000 0.500000
vt 0.375000 0.500000
vt 0.375000 0.500000
vt 0.625000 0.375000
vt 0.625000 0.250000
vt 0.625000 0.250000
vt 0.625000 0.375000
vt 0.625000 0.750000
vt 0.625000 0.750000
vt 0.625000 0.750000
vt 0.625000 0.750000
vt 0.625000 0.500000
vt 0.625000 0.500000
vt 0.625000 0.500000
vt 0.625000 0.375000
vt 0.625000 0.250000
vt 0.375000 0.500000
vt 0.375000 0.500000
vt 0.375000 0.500000
vt 0.375000 0.500000
vt 0.375000 0.000000
vt 0.375000 0.000000
vt 0.500000 0.000000
vt 0.625000 0.000000
vt 0.625000 0.750000
vt 0.625000 0.750000
vt 0.625000 0.750000
vt 0.625000 0.000000
vt 0.625000 0.000000
vt 0.625000 0.000000
vt 0.625000 0.000000
vt 0.500000 0.000000
vt 0.375000 0.000000
vt 0.625000 1.000000
vt 0.625000 1.000000
vt 0.625000 1.000000
vt 0.625000 0.875000
vt 0.625000 0.750000
vt 0.375000 0.750000
vt 0.375000 0.875000
vt 0.375000 1.000000
vt 0.625000 0.750000
vt 0.625000 0.750000
vt 0.625000 0.750000
vt 0.500000 0.750000
vt 0.625000 0.250000
vt 0.625000 0.250000
vt 0.625000 0.250000
vt 0.625000 0.125000
vt 0.625000 0.000000
vt 0.125000 0.500000
vt 0.125000 0.500000
vt 0.125000 0.500000
vt 0.250000 0.500000
vt 0.375000 0.500000
vt 0.375000 0.000000
vt 0.375000 0.000000
vt 0.375000 0.000000
vt 0.375000 0.125000
vt 0.375000 0.250000
vt 0.375000 0.500000
vt 0.375000 0.500000
vt 0.375000 0.500000
vt 0.625000 0.750000
vt 0.625000 0.750000
vt 0.625000 0.750000
vt 0.250000 0.500000
vt 0.125000 0.500000
vt 0.625000 0.750000
vt 0.625000 0.750000
vt 0.500000 0.750000
vt 0.375000 0.750000
vt 0.500000 0.750000
vn -0.8560 -0.5170 0.0000
vn 1.0000 -0.0000 0.0000
vn 0.0000 1.0000 0.0000
vn -1.0000 0.0000 0.0000
vn 0.0000 -1.0000 0.0000
vn 0.3884 0.0000 -0.9215
vn -0.4050 0.0000 -0.9143
vn 0.0000 -0.9100 -0.4146
vn 0.8560 -0.5170 0.0000
vn 0.0000 0.0000 1.0000
usemtl Material
s off
f 113/1/1 90/2/1 38/3/1 87/4/1
f 112/5/2 48/6/2 10/7/2 46/8/2
f 111/9/2 56/10/2 14/11/2 54/12/2
f 110/13/3 49/14/3 8/15/3 44/16/3
f 109/17/4 50/18/4 7/19/4 45/20/4
f 108/21/3 57/22/3 12/23/3 52/24/3
f 107/25/4 58/26/4 11/27/4 53/28/4
f 106/29/5 72/30/5 28/31/5 69/32/5
f 105/33/6 73/34/6 25/35/6 67/36/6
f 104/37/5 76/38/5 30/39/5 70/40/5
f 103/41/7 78/42/7 23/43/7 68/44/7
f 102/45/3 79/46/3 24/47/3 66/48/3
f 101/49/3 75/50/3 26/51/3 71/52/3
f 100/53/5 84/54/5 36/55/5 82/56/5
f 99/57/8 87/58/8 38/59/8 85/60/8
f 98/61/9 43/62/9 34/63/9 83/64/9
f 97/65/10 93/66/10 37/67/10 85/60/10
f 96/68/1 91/69/1 36/70/1 84/71/1
f 95/72/10 89/73/10 31/74/10 80/75/10
f 93/76/9 94/77/9 86/78/9 37/79/9
f 14/11/9 56/10/9 94/77/9 93/76/9
f 47/80/10 95/72/10 80/75/10 32/81/10
f 6/82/10 42/83/10 95/72/10 47/80/10
f 42/83/10 3/84/10 89/73/10 95/72/10
f 88/85/1 96/68/1 84/71/1 33/86/1
f 1/87/1 51/88/1 96/68/1 88/85/1
f 90/89/10 97/65/10 85/60/10 38/59/10
f 13/90/10 55/91/10 97/65/10 90/89/10
f 55/91/10 14/92/10 93/66/10 97/65/10
f 92/93/9 98/61/9 83/64/9 35/94/9
f 48/6/9 4/95/9 43/62/9 98/61/9
f 86/96/8 99/57/8 85/60/8 37/67/8
f 83/97/5 100/53/5 82/56/5 35/98/5
f 34/99/5 81/100/5 100/53/5 83/97/5
f 81/100/5 33/101/5 84/54/5 100/53/5
f 74/102/3 101/49/3 71/52/3 29/103/3
f 21/104/3 65/105/3 101/49/3 74/102/3
f 65/105/3 18/106/3 75/50/3 101/49/3
f 78/42/3 102/45/3 66/48/3 23/43/3
f 15/107/3 60/108/3 102/45/3 78/42/3
f 60/108/3 16/109/3 79/46/3 102/45/3
f 76/110/7 103/41/7 68/44/7 30/111/7
f 22/112/7 62/113/7 103/41/7 76/110/7
f 62/113/7 15/107/7 78/42/7 103/41/7
f 77/114/5 104/37/5 70/40/5 27/115/5
f 19/116/5 64/117/5 104/37/5 77/114/5
f 64/117/5 22/118/5 76/38/5 104/37/5
f 75/119/6 105/33/6 67/36/6 26/120/6
f 18/121/6 61/122/6 105/33/6 75/119/6
f 61/122/6 17/123/6 73/34/6 105/33/6
f 73/124/5 106/29/5 69/32/5 25/125/5
f 17/126/5 63/127/5 106/29/5 73/124/5
f 63/127/5 20/128/5 72/30/5 106/29/5
f 59/129/4 107/25/4 53/28/4 13/130/4
f 9/131/4 45/20/4 107/25/4 59/129/4
f 45/20/4 7/19/4 58/26/4 107/25/4
f 58/132/3 108/21/3 52/24/3 11/133/3
f 7/134/3 44/16/3 108/21/3 58/132/3
f 44/16/3 8/15/3 57/22/3 108/21/3
f 51/88/4 109/17/4 45/20/4 9/131/4
f 1/87/4 40/135/4 109/17/4 51/88/4
f 40/135/4 2/136/4 50/18/4 109/17/4
f 50/137/3 110/13/3 44/16/3 7/134/3
f 2/138/3 39/139/3 110/13/3 50/137/3
f 39/139/3 5/140/3 49/14/3 110/13/3
f 57/22/2 111/9/2 54/12/2 12/23/2
f 8/15/2 46/8/2 111/9/2 57/22/2
f 46/8/2 10/7/2 56/10/2 111/9/2
f 49/14/2 112/5/2 46/8/2 8/15/2
f 5/140/2 41/141/2 112/5/2 49/14/2
f 41/141/2 4/95/2 48/6/2 112/5/2
f 59/129/1 13/130/1 90/2/1 113/1/1
